<svg viewBox="0 0 169.88999938964844 42" xmlns="http://www.w3.org/2000/svg" data-logo="logo">
        <g transform="translate(0, 0.5)
    rotate(0 23 20.5)" id="logogram" style="opacity: 1;"><path fill="#B6EFA2" d="M39.3285 32.987C43.1874 29.5411 45.5538 24.8908 45.5538 19.7738C45.5538 9.15126 35.3562 0.539978 22.7769 0.539978C10.1976 0.539978 0 9.15126 0 19.7738C0 30.3963 10.1976 39.0076 22.7769 39.0076C26.3456 39.0076 29.7226 38.3146 32.7295 37.0791C36.2616 39.2593 40.5891 40.8264 45.3684 40.4959C42.8435 39.8541 40.6717 37.2542 39.3285 32.987Z"></path><path fill="#88E169" d="M39.48 19.7738C39.48 27.6009 32.0018 33.9461 22.7769 33.9461C13.5521 33.9461 6.07385 27.6009 6.07385 19.7738C6.07385 11.9466 13.5521 5.6015 22.7769 5.6015C32.0018 5.6015 39.48 11.9466 39.48 19.7738Z"></path><path fill="#55AE36" d="M33.4061 19.7738C33.4061 24.8056 28.6473 28.8846 22.7769 28.8846C16.9065 28.8846 12.1477 24.8056 12.1477 19.7738C12.1477 14.742 16.9065 10.6631 22.7769 10.6631C28.6473 10.6631 33.4061 14.742 33.4061 19.7738Z"></path></g>
        <g transform="translate(52, 7.720000000000001)" id="logotype" style="opacity: 1;"><path d="M19.13 26.56L19.13 26.56Q15.73 26.56 13.09 25.02Q10.45 23.48 8.96 20.57Q7.47 17.67 7.47 13.61L7.47 13.61Q7.47 9.65 8.91 6.73Q10.34 3.81 13 2.20Q15.66 0.59 19.23 0.59L19.23 0.59Q24.10 0.59 26.81 2.99Q29.52 5.38 30.29 9.83L30.29 9.83L24.76 10.04Q24.34 7.69 22.94 6.38Q21.54 5.07 19.23 5.07L19.23 5.07Q17.23 5.07 15.84 6.12Q14.44 7.17 13.70 9.09Q12.96 11.02 12.96 13.61L12.96 13.61Q12.96 16.23 13.72 18.14Q14.47 20.05 15.87 21.06Q17.27 22.08 19.20 22.08L19.20 22.08Q21.72 22.08 23.10 20.66Q24.48 19.24 24.83 16.73L24.83 16.73L30.40 16.93Q29.91 19.98 28.47 22.11Q27.04 24.25 24.71 25.41Q22.38 26.56 19.13 26.56ZM41.14 26.42L41.14 26.42Q38.27 26.42 36.13 25.21Q34 24.00 32.81 21.80Q31.62 19.59 31.62 16.62L31.62 16.62Q31.62 13.64 32.81 11.46Q34 9.27 36.13 8.04Q38.27 6.82 41.14 6.82L41.14 6.82Q44.01 6.82 46.15 8.04Q48.28 9.27 49.47 11.46Q50.66 13.64 50.66 16.62L50.66 16.62Q50.66 19.59 49.47 21.80Q48.28 24.00 46.15 25.21Q44.01 26.42 41.14 26.42ZM41.14 22.39L41.14 22.39Q43.10 22.39 44.19 20.87Q45.27 19.35 45.27 16.62L45.27 16.62Q45.27 13.89 44.19 12.37Q43.10 10.84 41.14 10.84L41.14 10.84Q39.18 10.84 38.09 12.37Q37.01 13.89 37.01 16.62L37.01 16.62Q37.01 19.35 38.09 20.87Q39.18 22.39 41.14 22.39ZM58.12 26L52.87 26L52.87 7.24L57.84 7.24L58.01 12.70L57.63 12.59Q58.08 9.76 59.23 8.50Q60.39 7.24 62.42 7.24L62.42 7.24L64.14 7.24L64.14 11.58L62.42 11.58Q60.95 11.58 60.01 11.96Q59.06 12.35 58.59 13.19Q58.12 14.03 58.12 15.46L58.12 15.46L58.12 26ZM77.89 26L73.34 26Q70.44 26 69.07 24.65Q67.71 23.30 67.71 20.36L67.71 20.36L67.71 2.83L72.96 2.83L72.96 19.73Q72.96 21.10 73.53 21.59Q74.11 22.08 75.27 22.08L75.27 22.08L77.89 22.08L77.89 26ZM77.89 11.16L64.70 11.16L64.70 7.24L77.89 7.24L77.89 11.16ZM88.04 26.42L88.04 26.42Q85.17 26.42 83.05 25.21Q80.94 24.00 79.76 21.80Q78.59 19.59 78.59 16.62L78.59 16.62Q78.59 13.64 79.76 11.46Q80.94 9.27 83.04 8.04Q85.14 6.82 88.01 6.82L88.01 6.82Q90.81 6.82 92.87 8.04Q94.94 9.27 96.07 11.54Q97.21 13.82 97.21 16.97L97.21 16.97L97.21 18.02L84.02 18.02Q84.12 20.26 85.22 21.34Q86.33 22.43 88.15 22.43L88.15 22.43Q89.48 22.43 90.37 21.87Q91.26 21.31 91.65 20.16L91.65 20.16L96.93 20.47Q96.20 23.27 93.82 24.84Q91.44 26.42 88.04 26.42ZM84.02 14.80L84.02 14.80L91.82 14.80Q91.72 12.73 90.68 11.72Q89.65 10.70 88.01 10.70L88.01 10.70Q86.36 10.70 85.29 11.77Q84.23 12.84 84.02 14.80ZM102.50 26L96.83 26L103.51 16.48L97.00 7.24L102.57 7.24L106.59 13.26L110.48 7.24L116.18 7.24L109.71 16.52L116.36 26L110.79 26L106.66 19.63L102.50 26Z" fill="#55A336"></path></g>
        
      </svg>